<?xml version="1.0" encoding="UTF-8"?>
<svg version="1.1" xmlns="http://www.w3.org/2000/svg" width="800" height="858">
<path d="M0 0 C226.38 0 452.76 0 686 0 C686 18.81 686 37.62 686 57 C704.81 57 723.62 57 743 57 C743 302.19 743 547.38 743 800 C724.19 800 705.38 800 686 800 C686 818.81 686 837.62 686 857 C459.62 857 233.24 857 0 857 C0 838.19 0 819.38 0 800 C-18.81 800 -37.62 800 -57 800 C-57 554.81 -57 309.62 -57 57 C-38.19 57 -19.38 57 0 57 C0 38.19 0 19.38 0 0 Z " fill="#FFFFFF" transform="translate(57,0)"/>
<path d="M0 0 C226.38 0 452.76 0 686 0 C686 18.81 686 37.62 686 57 C704.81 57 723.62 57 743 57 C743 302.19 743 547.38 743 800 C724.19 800 705.38 800 686 800 C686 818.81 686 837.62 686 857 C459.62 857 233.24 857 0 857 C0 838.19 0 819.38 0 800 C-18.81 800 -37.62 800 -57 800 C-57 554.81 -57 309.62 -57 57 C-38.19 57 -19.38 57 0 57 C0 38.19 0 19.38 0 0 Z M57 57 C57 75.81 57 94.62 57 114 C38.19 114 19.38 114 0 114 C0 283.95 0 453.9 0 629 C18.81 629 37.62 629 57 629 C57 647.81 57 666.62 57 686 C245.76 686 434.52 686 629 686 C629 667.19 629 648.38 629 629 C647.81 629 666.62 629 686 629 C686 459.05 686 289.1 686 114 C667.19 114 648.38 114 629 114 C629 95.19 629 76.38 629 57 C440.24 57 251.48 57 57 57 Z " fill="#655561" transform="translate(57,0)"/>
<path d="M0 0 C18.81 0 37.62 0 57 0 C57 18.81 57 37.62 57 57 C245.76 57 434.52 57 629 57 C629 38.19 629 19.38 629 0 C647.81 0 666.62 0 686 0 C686 37.62 686 75.24 686 114 C667.19 114 648.38 114 629 114 C629 132.81 629 151.62 629 171 C440.24 171 251.48 171 57 171 C57 152.19 57 133.38 57 114 C38.19 114 19.38 114 0 114 C0 76.38 0 38.76 0 0 Z " fill="#7D929E" transform="translate(57,629)"/>
<path d="M0 0 C18.81 0 37.62 0 57 0 C57 75.24 57 150.48 57 228 C38.19 228 19.38 228 0 228 C0 152.76 0 77.52 0 0 Z " fill="#655561" transform="translate(514,229)"/>
<path d="M0 0 C18.81 0 37.62 0 57 0 C57 75.24 57 150.48 57 228 C38.19 228 19.38 228 0 228 C0 152.76 0 77.52 0 0 Z " fill="#655561" transform="translate(229,229)"/>
<path d="M0 0 C37.62 0 75.24 0 114 0 C114 18.81 114 37.62 114 57 C95.19 57 76.38 57 57 57 C57 75.81 57 94.62 57 114 C38.19 114 19.38 114 0 114 C0 76.38 0 38.76 0 0 Z " fill="#6C6A76" transform="translate(686,743)"/>
<path d="M0 0 C18.81 0 37.62 0 57 0 C57 18.81 57 37.62 57 57 C38.19 57 19.38 57 0 57 C0 38.19 0 19.38 0 0 Z " fill="#6C6A76" transform="translate(686,800)"/>
<path d="M0 0 C18.81 0 37.62 0 57 0 C57 18.81 57 37.62 57 57 C38.19 57 19.38 57 0 57 C0 38.19 0 19.38 0 0 Z " fill="#6C6A76" transform="translate(57,800)"/>
<path d="M0 0 C18.81 0 37.62 0 57 0 C57 18.81 57 37.62 57 57 C38.19 57 19.38 57 0 57 C0 38.19 0 19.38 0 0 Z " fill="#655561" transform="translate(686,743)"/>
<path d="M0 0 C18.81 0 37.62 0 57 0 C57 18.81 57 37.62 57 57 C38.19 57 19.38 57 0 57 C0 38.19 0 19.38 0 0 Z " fill="#6C6A76" transform="translate(0,743)"/>
<path d="M0 0 C18.81 0 37.62 0 57 0 C57 18.81 57 37.62 57 57 C38.19 57 19.38 57 0 57 C0 38.19 0 19.38 0 0 Z " fill="#6C6A76" transform="translate(743,57)"/>
<path d="M0 0 C18.81 0 37.62 0 57 0 C57 18.81 57 37.62 57 57 C38.19 57 19.38 57 0 57 C0 38.19 0 19.38 0 0 Z " fill="#6C6A76" transform="translate(0,57)"/>
<path d="M0 0 C18.81 0 37.62 0 57 0 C57 18.81 57 37.62 57 57 C38.19 57 19.38 57 0 57 C0 38.19 0 19.38 0 0 Z " fill="#6C6A76" transform="translate(686,0)"/>
<path d="M0 0 C18.81 0 37.62 0 57 0 C57 18.81 57 37.62 57 57 C38.19 57 19.38 57 0 57 C0 38.19 0 19.38 0 0 Z " fill="#6C6A76" transform="translate(57,0)"/>
</svg>
