<?xml version="1.0" encoding="UTF-8"?>
<svg version="1.1" xmlns="http://www.w3.org/2000/svg" width="1200" height="1170">
<path d="M0 0 C1.39425117 -0.00195574 2.7885018 -0.00434565 4.18275157 -0.00712797 C8.01216483 -0.01350341 11.84155705 -0.01369156 15.67097461 -0.01285056 C19.83815146 -0.01302055 24.00532088 -0.01893218 28.17249399 -0.02409142 C36.43702011 -0.03340565 44.70154087 -0.03733749 52.96607158 -0.03961039 C62.866224 -0.04257559 72.76636934 -0.05127496 82.66651803 -0.06002467 C106.59726982 -0.0808587 130.52802283 -0.09133783 154.45878157 -0.10015428 C165.7847413 -0.10436289 177.11070049 -0.10958464 188.43665977 -0.11483881 C227.22212285 -0.13272947 266.00758609 -0.14772393 304.79305267 -0.155159 C307.22761235 -0.15563375 309.66217202 -0.15610964 312.0967317 -0.15658666 C313.30403233 -0.15682303 314.51133296 -0.15705941 315.75521846 -0.15730295 C321.87180103 -0.15850412 327.9883836 -0.15971958 334.10496616 -0.16094494 C335.31881209 -0.16118509 336.53265801 -0.16142524 337.78328715 -0.16167267 C377.11889639 -0.16956158 416.45447543 -0.19298478 455.79007149 -0.22550088 C497.39680274 -0.25983144 539.00351633 -0.27951319 580.61026198 -0.28280324 C585.18168867 -0.28322076 589.75311536 -0.28370032 594.32454205 -0.28422642 C595.45012134 -0.28434961 596.57570063 -0.2844728 597.73538838 -0.28459973 C615.8178187 -0.28692789 633.90021386 -0.30256653 651.98263166 -0.32306826 C670.17528333 -0.34336694 688.36789295 -0.34878451 706.56055384 -0.33929763 C717.35528322 -0.33409816 728.14987217 -0.33988632 738.94458123 -0.3618323 C746.17290732 -0.3754111 753.40113752 -0.37420139 760.62946472 -0.36143034 C764.73655051 -0.35458041 768.84336923 -0.35370109 772.95043039 -0.37099043 C823.17296236 -0.56911001 869.75063413 11.36919998 910.22142124 42.13422108 C911.16243687 42.84320545 912.10345249 43.55218983 913.07298374 44.28265858 C919.79797121 49.51320439 926.02810821 55.2943308 932.22142124 61.13422108 C933.39704624 62.22863514 933.39704624 62.22863514 934.59642124 63.34515858 C941.2113321 69.70019794 946.71977191 76.82297413 952.22142124 84.13422108 C952.65100132 84.69770252 953.0805814 85.26118397 953.52317905 85.84174061 C960.77418524 95.39531805 966.68000693 105.50871725 972.22142124 116.13422108 C973.14567905 117.88218983 973.14567905 117.88218983 974.08860874 119.66547108 C987.22049258 146.05026995 994.39112925 176.02522539 994.35564232 205.44427872 C994.35759826 206.78736708 994.35998825 208.13045486 994.36277029 209.47354177 C994.36914315 213.16089973 994.36933409 216.84823582 994.36849288 220.53559823 C994.36866292 224.54878461 994.37457513 228.56196328 994.37973374 232.57514578 C994.3890464 240.53359738 994.39297954 248.49204342 994.39525271 256.45049979 C994.39821833 265.98431779 994.40691794 275.51812843 994.41566699 285.05194256 C994.43649944 308.09714632 994.44697995 331.14235135 994.4557966 354.18756233 C994.46000548 365.09495535 994.4652272 376.00234781 994.47048112 386.90974036 C994.48837175 424.26359552 994.50336606 461.61745085 994.51080132 498.97130966 C994.51127607 501.31594172 994.51175196 503.66057378 994.51222898 506.00520584 C994.51258354 507.74926004 994.51258354 507.74926004 994.51294527 509.52854766 C994.51414644 515.4191595 994.5153619 521.30977135 994.51658726 527.20038319 C994.51682741 528.36938383 994.51706756 529.53838448 994.51731498 530.74280938 C994.52520353 568.62336489 994.54862597 606.50388905 994.5811432 644.38443087 C994.61547682 684.4543052 994.6351558 724.52416119 994.63844556 764.59405047 C994.63886308 768.99696768 994.63934264 773.39988488 994.63986874 777.80280209 C994.63999193 778.88688686 994.64011512 779.97097164 994.64024204 781.08790747 C994.64256984 798.50085855 994.65820642 815.9137731 994.67871058 833.32671119 C994.69901327 850.8472388 994.70442495 868.36772274 994.69493995 885.88825994 C994.68974201 896.28307011 994.6955213 906.6777344 994.71747462 917.07252344 C994.73105982 924.03427443 994.72983817 930.99592589 994.71707266 937.95767804 C994.71022689 941.91251132 994.70932857 945.86706734 994.72663275 949.82187497 C994.83283814 975.72852194 992.50351258 1000.44484088 984.22142124 1025.13422108 C983.93814976 1025.98258533 983.65487827 1026.83094959 983.3630228 1027.70502186 C976.13293736 1048.88797384 965.81608679 1068.36473622 952.22142124 1086.13422108 C951.51372593 1087.07265858 950.80603062 1088.01109608 950.07688999 1088.97797108 C944.84834867 1095.7079876 939.06313266 1101.93897669 933.22142124 1108.13422108 C932.49181187 1108.91797108 931.76220249 1109.70172108 931.01048374 1110.50922108 C924.65544438 1117.12413194 917.53266819 1122.63257174 910.22142124 1128.13422108 C909.6579398 1128.56380116 909.09445835 1128.99338123 908.51390171 1129.43597889 C898.96032427 1136.68698508 888.84692507 1142.59280677 878.22142124 1148.13422108 C876.47345249 1149.05847889 876.47345249 1149.05847889 874.69017124 1150.00140858 C848.12295085 1163.22408478 818.04967251 1170.30281067 788.44284248 1170.26844215 C787.04859131 1170.27039789 785.65434069 1170.2727878 784.26009092 1170.27557012 C780.43067765 1170.28194556 776.60128543 1170.28213372 772.77186788 1170.28129272 C768.60469103 1170.2814627 764.4375216 1170.28737434 760.27034849 1170.29253358 C752.00582237 1170.3018478 743.74130161 1170.30577964 735.4767709 1170.30805254 C725.57661848 1170.31101775 715.67647315 1170.31971712 705.77632445 1170.32846682 C681.84557266 1170.34930086 657.91481965 1170.35977999 633.98406091 1170.36859643 C622.65810119 1170.37280504 611.33214199 1170.37802679 600.00618271 1170.38328096 C561.22071963 1170.40117162 522.4352564 1170.41616608 483.64978981 1170.42360115 C481.21523014 1170.4240759 478.78067046 1170.42455179 476.34611079 1170.42502881 C475.13881016 1170.42526519 473.93150952 1170.42550156 472.68762403 1170.4257451 C466.57104145 1170.42694628 460.45445889 1170.42816173 454.33787632 1170.42938709 C452.51710743 1170.42974732 452.51710743 1170.42974732 450.65955533 1170.43011482 C411.3239461 1170.43800374 371.98836705 1170.46142693 332.65277099 1170.49394304 C291.04603974 1170.52827359 249.43932615 1170.54795535 207.83258051 1170.55124539 C203.26115381 1170.55166291 198.68972712 1170.55214247 194.11830044 1170.55266857 C192.4299315 1170.55285336 192.4299315 1170.55285336 190.7074541 1170.55304188 C172.62502378 1170.55537004 154.54262863 1170.57100869 136.46021082 1170.59151042 C118.26755915 1170.61180909 100.07494954 1170.61722666 81.88228864 1170.60773978 C71.08755926 1170.60254032 60.29297031 1170.60832848 49.49826126 1170.63027446 C42.26993516 1170.64385325 35.04170497 1170.64264354 27.81337776 1170.6298725 C23.70629198 1170.62302257 19.59947325 1170.62214324 15.4924121 1170.63943259 C-10.7344645 1170.74288279 -35.75768818 1168.52751809 -60.77857876 1160.13422108 C-61.62694302 1159.85094959 -62.47530727 1159.56767811 -63.34937954 1159.27582264 C-84.53233152 1152.0457372 -104.0090939 1141.72888662 -121.77857876 1128.13422108 C-122.71701626 1127.42652576 -123.65545376 1126.71883045 -124.62232876 1125.98968983 C-131.35234528 1120.76114851 -137.58333437 1114.9759325 -143.77857876 1109.13422108 C-144.56232876 1108.4046117 -145.34607876 1107.67500233 -146.15357876 1106.92328358 C-152.76848962 1100.56824421 -158.27692943 1093.44546803 -163.77857876 1086.13422108 C-164.20815884 1085.57073963 -164.63773891 1085.00725819 -165.08033657 1084.42670155 C-172.33134276 1074.87312411 -178.23716445 1064.7597249 -183.77857876 1054.13422108 C-184.70283657 1052.38625233 -184.70283657 1052.38625233 -185.64576626 1050.60297108 C-198.7776501 1024.21817221 -205.94828676 994.24321676 -205.91279984 964.82416344 C-205.91475578 963.48107508 -205.91714577 962.13798729 -205.91992781 960.79490039 C-205.92630067 957.10754243 -205.92649161 953.42020634 -205.9256504 949.73284393 C-205.92582044 945.71965755 -205.93173265 941.70647887 -205.93689126 937.69329637 C-205.94620392 929.73484477 -205.95013706 921.77639873 -205.95241022 913.81794236 C-205.95537584 904.28412437 -205.96407546 894.75031373 -205.9728245 885.2164996 C-205.99365696 862.17129584 -206.00413747 839.1260908 -206.01295411 816.08087982 C-206.017163 805.17348681 -206.02238471 794.26609435 -206.02763864 783.3587018 C-206.04552927 746.00484663 -206.06052357 708.6509913 -206.06795883 671.29713249 C-206.06843359 668.95250043 -206.06890947 666.60786837 -206.06938649 664.26323631 C-206.06962287 663.10053351 -206.06985925 661.93783071 -206.07010279 660.73989449 C-206.07130396 654.84928265 -206.07251941 648.95867081 -206.07374477 643.06805897 C-206.07398492 641.89905832 -206.07422507 640.73005768 -206.0744725 639.52563277 C-206.08236105 601.64507726 -206.10578349 563.76455311 -206.13830072 525.88401128 C-206.17263434 485.81413695 -206.19231332 445.74428096 -206.19560307 405.67439169 C-206.19602059 401.27147447 -206.19650015 396.86855727 -206.19702625 392.46564007 C-206.19714944 391.38155529 -206.19727264 390.29747052 -206.19739956 389.18053469 C-206.19972735 371.7675836 -206.21536393 354.35466905 -206.2358681 336.94173097 C-206.25617078 319.42120336 -206.26158246 301.90071941 -206.25209747 284.38018221 C-206.24689953 273.98537205 -206.25267881 263.59070775 -206.27463214 253.19591871 C-206.28821734 246.23416772 -206.28699569 239.27251627 -206.27423018 232.31076411 C-206.26738441 228.35593084 -206.26648609 224.40137481 -206.28379027 220.44656719 C-206.38999565 194.53992021 -204.06067009 169.82360127 -195.77857876 145.13422108 C-195.49530727 144.28585682 -195.21203579 143.43749256 -194.92018032 142.5634203 C-187.69009488 121.38046831 -177.3732443 101.90370593 -163.77857876 84.13422108 C-163.07088345 83.19578358 -162.36318813 82.25734608 -161.63404751 81.29047108 C-156.40550619 74.56045455 -150.62029018 68.32946547 -144.77857876 62.13422108 C-144.04896938 61.35047108 -143.31936001 60.56672108 -142.56764126 59.75922108 C-136.2126019 53.14431022 -129.08982571 47.63587041 -121.77857876 42.13422108 C-121.21509731 41.704641 -120.65161587 41.27506092 -120.07105923 40.83246326 C-110.51748179 33.58145708 -100.40408258 27.67563539 -89.77857876 22.13422108 C-88.03061001 21.20996326 -88.03061001 21.20996326 -86.24732876 20.26703358 C-59.68010837 7.04435738 -29.60683002 -0.03436852 0 0 Z " fill="#00005B" transform="translate(205.77857875823975,-0.13422107696533203)"/>
<path d="M0 0 C3.93537591 -0.00891596 7.8704053 -0.02999858 11.80566406 -0.06152344 C35.53849012 -0.24714178 58.43530478 0.40430228 81.88134766 4.29516602 C83.71805104 4.57965128 85.55494885 4.8628858 87.39208984 5.14453125 C108.65232889 8.40559983 131.22318095 16.68044927 149.88134766 27.29516602 C151.07924753 27.93695671 152.27849324 28.5762411 153.47900391 29.21313477 C165.92049697 35.92353162 176.64015486 44.59298337 186.88134766 54.29516602 C188.31607422 55.63321289 188.31607422 55.63321289 189.77978516 56.99829102 C202.04292048 68.66670591 211.21271036 82.25980628 218.88134766 97.29516602 C219.22794434 97.96821777 219.57454102 98.64126953 219.93164062 99.3347168 C228.79619499 116.88478568 234.28100741 136.70181109 235.88134766 156.29516602 C235.96457275 157.15392334 236.04779785 158.01268066 236.13354492 158.89746094 C237.86521544 177.55248469 237.81794464 196.76352124 234.88134766 215.29516602 C234.76307617 216.04459473 234.64480469 216.79402344 234.52294922 217.56616211 C230.25370863 243.18703723 220.34520493 269.0063722 203.88134766 289.29516602 C203.23294922 290.14336914 202.58455078 290.99157227 201.91650391 291.86547852 C168.30433971 334.80392291 117.16614825 354.46715241 64.27197266 360.91625977 C45.91235746 363.03886309 27.46651823 362.63533408 9.01531982 362.50115967 C4.2473969 362.46990779 -0.52057739 362.45665131 -5.28857422 362.44165039 C-14.565397 362.40992719 -23.84199898 362.35905169 -33.11865234 362.29516602 C-33.11588696 363.13761273 -33.11312159 363.98005945 -33.11027241 364.84803486 C-33.04407557 385.32818915 -32.99440249 405.80832505 -32.96321583 426.28856373 C-32.94773408 436.19257761 -32.92661964 446.09652017 -32.89233398 456.00048828 C-32.86247159 464.63082462 -32.84308686 473.26110932 -32.83638686 481.89149588 C-32.83246923 486.46301043 -32.82323524 491.03437722 -32.80146217 495.6058445 C-32.78114687 499.90595363 -32.77480845 504.20585368 -32.7793293 508.50600624 C-32.77850187 510.08667638 -32.7725067 511.66735329 -32.76103592 513.24798203 C-32.74616886 515.40169012 -32.74967688 517.55460278 -32.75788879 519.70832825 C-32.75512341 520.91495526 -32.75235804 522.12158228 -32.74950886 523.36477375 C-33.11865234 526.29516602 -33.11865234 526.29516602 -34.3778944 528.18261337 C-36.52498898 529.55486375 -37.7902973 529.67456333 -40.33154297 529.68284607 C-41.61859131 529.69770302 -41.61859131 529.69770302 -42.93164062 529.71286011 C-43.86991699 529.70835846 -44.80819336 529.70385681 -45.77490234 529.69921875 C-46.76538574 529.706082 -47.75586914 529.71294525 -48.77636719 529.72001648 C-52.05727385 529.73834947 -55.33770535 529.73443798 -58.61865234 529.72875977 C-60.89404456 529.73331814 -63.1694354 529.73862267 -65.44482422 529.74464417 C-70.21636545 529.75358784 -74.98773942 529.75113744 -79.75927734 529.74121094 C-85.88315181 529.72971443 -92.00645026 529.74993729 -98.13024902 529.77912807 C-102.82962733 529.79744595 -107.52886645 529.79720651 -112.22827148 529.79149055 C-114.48658049 529.79133683 -116.74489863 529.7974233 -119.00317383 529.80978203 C-122.15662119 529.82460827 -125.30898947 529.81407654 -128.46240234 529.796875 C-129.40067871 529.80654297 -130.33895508 529.81621094 -131.30566406 529.82617188 C-132.16369629 529.81633774 -133.02172852 529.8065036 -133.90576172 529.79637146 C-134.65128296 529.79616218 -135.3968042 529.79595289 -136.16491699 529.79573727 C-138.11865234 529.29516602 -138.11865234 529.29516602 -139.71716559 527.80168307 C-141.73787192 524.18771036 -141.53059406 520.72287169 -141.49617577 516.69032192 C-141.50053609 515.80865102 -141.50489641 514.92698011 -141.50938886 514.01859191 C-141.52039887 511.04328239 -141.50989635 508.06843108 -141.49960327 505.09312439 C-141.50305755 502.94691163 -141.50782057 500.80070064 -141.513785 498.65449339 C-141.52635603 492.74045633 -141.52009695 486.82656373 -141.51082635 480.91252601 C-141.50406115 474.54096278 -141.51450446 468.16942505 -141.52276611 461.79786682 C-141.53535927 450.03221256 -141.534234 438.26660996 -141.52603171 426.50095317 C-141.51849236 415.63324017 -141.51651152 404.76554413 -141.52009964 393.89782906 C-141.5203288 393.17763906 -141.52055795 392.45744907 -141.52079405 391.71543514 C-141.52172803 388.79214151 -141.52268322 385.86884789 -141.52367334 382.94555429 C-141.53285509 355.51013895 -141.52452226 328.07475311 -141.50838265 300.63934232 C-141.49414379 276.2494546 -141.49542044 251.85961387 -141.50976562 227.46972656 C-141.52581904 200.08377265 -141.5322055 172.69784481 -141.52292883 145.31188685 C-141.52196664 142.39415364 -141.52102812 139.47642043 -141.52009964 136.55868721 C-141.51986241 135.84023723 -141.51962518 135.12178725 -141.51938075 134.38156606 C-141.51596415 123.51836191 -141.51996691 112.65517657 -141.5275383 101.79197502 C-141.53610122 89.44440234 -141.53371341 77.09689307 -141.51769607 64.74932592 C-141.50978781 58.44423977 -141.5067651 52.13924921 -141.51664352 45.83416367 C-141.52553814 40.07003173 -141.52074454 34.30608461 -141.50471087 28.5419696 C-141.50134077 26.44918474 -141.50310661 24.35638448 -141.51033823 22.2636094 C-141.51937247 19.43356934 -141.51019473 16.60417449 -141.49617577 13.77416897 C-141.50319926 12.94893377 -141.51022276 12.12369857 -141.51745909 11.27345625 C-141.46193311 5.72057425 -141.46193311 5.72057425 -139.74128661 3.58827541 C-137.46536655 1.77454962 -135.87021411 1.90395342 -132.98095703 1.87866211 C-131.39828033 1.85381241 -131.39828033 1.85381241 -129.78363037 1.82846069 C-128.63090637 1.82520782 -127.47818237 1.82195496 -126.29052734 1.81860352 C-125.07770081 1.80302399 -123.86487427 1.78744446 -122.61529541 1.77139282 C-118.69975685 1.72379764 -114.7843879 1.69624838 -110.86865234 1.67016602 C-107.10815379 1.63310235 -103.34772319 1.5917616 -99.58728027 1.54945374 C-96.97116976 1.52006749 -94.35503847 1.4924856 -91.7388916 1.46653748 C-82.1338194 1.36545035 -72.53595958 1.13294994 -62.93439484 0.85976601 C-41.9568664 0.26717962 -20.98552335 0.04230055 0 0 Z " fill="#9898FE" transform="translate(426.11865234375,296.704833984375)"/>
<path d="M0 0 C0.93134766 -0.020625 1.86269531 -0.04125 2.82226562 -0.0625 C4.1612793 -0.07023437 4.1612793 -0.07023437 5.52734375 -0.078125 C6.327771 -0.0874707 7.12819824 -0.09681641 7.95288086 -0.10644531 C10.64384313 0.34822486 11.37600338 1.13482102 13.0625 3.25 C13.44002342 5.23497009 13.44002342 5.23497009 13.44345093 7.53881836 C13.4519104 8.41367889 13.46036987 9.28853943 13.46908569 10.18991089 C13.45997665 11.62537766 13.45997665 11.62537766 13.45068359 13.08984375 C13.45856903 14.60482956 13.45856903 14.60482956 13.46661377 16.15042114 C13.47984123 19.4962704 13.47106576 22.84164572 13.4609375 26.1875 C13.46295744 28.50773205 13.46586821 30.82796349 13.46963501 33.14819336 C13.4740621 38.01389605 13.46761481 42.87943366 13.45361328 47.74511719 C13.43652136 53.98997639 13.44636046 60.23444882 13.46433067 66.47929382 C13.47515803 71.27131071 13.47172696 76.06323551 13.4639473 80.85525513 C13.46194239 83.15821376 13.46441468 85.46118068 13.47138596 87.76412964 C13.47898304 90.97969795 13.46742025 94.19463509 13.45068359 97.41015625 C13.45675629 98.36713409 13.46282898 99.32411194 13.46908569 100.31008911 C13.45639648 101.62237991 13.45639648 101.62237991 13.44345093 102.96118164 C13.44231985 103.72145157 13.44118877 104.4817215 13.44002342 105.26502991 C12.95701605 107.80462116 12.09434276 108.69396177 10.0625 110.25 C7.44067383 110.63476562 7.44067383 110.63476562 4.26953125 110.65625 C3.09358398 110.67598877 1.91763672 110.69572754 0.70605469 110.71606445 C-1.19031738 110.73286255 -1.19031738 110.73286255 -3.125 110.75 C-39.64342863 111.55402147 -82.00500443 117.96996603 -110.9375 142.25 C-111.79783026 142.89965886 -112.65816051 143.54931772 -113.54456139 144.21866322 C-117.01488202 148.61481051 -116.62622334 152.25417312 -116.55654907 157.7084198 C-116.56278805 158.77300441 -116.56902703 159.83758901 -116.57545507 160.93443376 C-116.59039708 164.5076909 -116.56971103 168.07985891 -116.54931641 171.65307617 C-116.55285649 174.21211638 -116.55863278 176.77115432 -116.56648254 179.33018494 C-116.57867371 184.8430591 -116.57579992 190.35560178 -116.55965042 195.8684597 C-116.5365828 203.84122644 -116.54389056 211.81374408 -116.55918162 219.78651909 C-116.58345 232.72480677 -116.58765933 245.66301472 -116.57714844 258.60131836 C-116.57652461 259.37552607 -116.57590079 260.14973378 -116.57525806 260.94740234 C-116.57398672 262.51441666 -116.57271248 264.08143098 -116.57143535 265.6484453 C-116.57048678 266.81388486 -116.57048678 266.81388486 -116.56951904 268.00286865 C-116.5688809 268.78054847 -116.56824275 269.55822829 -116.56758527 270.35947416 C-116.56077529 279.00291397 -116.55878825 287.64635265 -116.55859375 296.28979492 C-116.55857092 297.06396935 -116.55854809 297.83814377 -116.55852456 298.63577803 C-116.55859372 311.52940245 -116.5706036 324.42299653 -116.58955324 337.31660634 C-116.60053377 345.27304262 -116.59966013 353.22932053 -116.5836135 361.18574915 C-116.57194162 367.27415574 -116.57489444 373.36246017 -116.58324242 379.45087624 C-116.58405629 381.95434577 -116.57965774 384.45782294 -116.56979942 386.96127319 C-116.55703836 390.36519536 -116.56240145 393.76861145 -116.57241821 397.17253113 C-116.56416004 398.1749414 -116.55590186 399.17735168 -116.54739344 400.21013802 C-116.55695301 401.5700102 -116.55695301 401.5700102 -116.5667057 402.95735455 C-116.56589394 403.74370303 -116.56508218 404.53005151 -116.56424582 405.34022874 C-116.6874197 405.97045325 -116.81059358 406.60067777 -116.9375 407.25 C-120.05464655 409.3280977 -120.75460944 409.50287174 -124.29551697 409.52415466 C-125.18576065 409.53412979 -126.07600433 409.54410492 -126.9932251 409.55438232 C-127.96733337 409.555047 -128.94144165 409.55571167 -129.94506836 409.55639648 C-130.97295975 409.56472 -132.00085114 409.57304352 -133.05989075 409.58161926 C-136.46574666 409.60576167 -139.87141128 409.61449605 -143.27734375 409.62109375 C-145.64002034 409.63005588 -148.00269632 409.63917765 -150.3653717 409.64845276 C-155.32098777 409.66495619 -160.27653615 409.67264552 -165.23217773 409.67553711 C-171.58917601 409.68092638 -177.9455405 409.71862391 -184.30235958 409.76428127 C-189.18276812 409.79398776 -194.06302276 409.80125926 -198.94351387 409.80226326 C-201.2875414 409.80647725 -203.63156891 409.81895838 -205.97550774 409.83978081 C-209.25099536 409.86656508 -212.52499679 409.86190796 -215.80053711 409.84936523 C-216.77262115 409.86419952 -217.7447052 409.87903381 -218.74624634 409.89431763 C-219.63930984 409.88455399 -220.53237335 409.87479034 -221.45249939 409.86473083 C-222.22659621 409.86674216 -223.00069304 409.86875349 -223.79824734 409.87082577 C-225.9375 409.25 -225.9375 409.25 -228.18579674 407.50569916 C-230.95541585 402.35811121 -230.48937537 397.299823 -230.44975281 391.54408264 C-230.45654849 390.23694492 -230.46334418 388.9298072 -230.4703458 387.58305925 C-230.48868719 383.95472033 -230.48217078 380.32678479 -230.47164643 376.69843042 C-230.4646483 372.78277218 -230.4806994 368.86720105 -230.49398804 364.9515686 C-230.5139238 358.15711201 -230.51933128 351.36276773 -230.51505089 344.56828499 C-230.50894159 334.69454467 -230.52587196 324.82094642 -230.54846082 314.94723492 C-230.58472307 298.86155493 -230.60383476 282.77590287 -230.61157227 266.69018555 C-230.61908298 251.17845338 -230.63208995 235.66674755 -230.65454102 220.1550293 C-230.65659706 218.73089121 -230.65659706 218.73089121 -230.65869465 217.27798266 C-230.67390623 206.85323697 -230.69070609 196.42849426 -230.70851612 186.00375271 C-230.71326387 183.21259821 -230.71801126 180.42144371 -230.72275683 177.6302892 C-230.72590825 175.78623467 -230.72908829 173.94218018 -230.73229728 172.09812575 C-230.75237618 160.50583994 -230.76557332 148.91357591 -230.77149159 137.32127446 C-230.76666493 94.06887997 -230.76666493 94.06887997 -231.38598633 50.82202148 C-231.40533529 49.9377171 -231.42468425 49.05341271 -231.44461954 48.14231122 C-231.61702832 40.57093957 -231.82295196 33.0091254 -232.26534081 25.44806099 C-232.31988133 24.48133274 -232.37442186 23.51460449 -232.43061513 22.51858145 C-232.53941452 20.64361132 -232.65739764 18.76914575 -232.78568441 16.89540809 C-232.8344476 16.05574802 -232.88321079 15.21608794 -232.93345165 14.35098362 C-232.98230957 13.60624304 -233.03116749 12.86150247 -233.08150595 12.09419399 C-232.9375 10.25 -232.9375 10.25 -230.9375 8.25 C-228.0116549 8.04591794 -225.18007838 7.96685525 -222.25268555 7.9753418 C-221.3533429 7.97023087 -220.45400024 7.96511993 -219.52740479 7.95985413 C-216.54294244 7.94591079 -213.55870987 7.9469188 -210.57421875 7.94921875 C-208.50397149 7.9453337 -206.43372503 7.94099942 -204.36347961 7.93623352 C-200.01809103 7.92876058 -195.67278366 7.92906982 -191.32739258 7.93432617 C-185.75867073 7.94011444 -180.19028216 7.92321045 -174.62161541 7.8999815 C-170.34336909 7.8852466 -166.065203 7.88437227 -161.78693581 7.88749123 C-159.7340307 7.88697764 -157.68112114 7.88173284 -155.62824059 7.87167931 C-152.7554401 7.85934059 -149.88328818 7.86609191 -147.01049805 7.87768555 C-146.16199783 7.87004181 -145.31349762 7.86239807 -144.43928528 7.85452271 C-139.77359437 7.89613319 -136.72881603 8.23464492 -132.9375 11.25 C-129.5010474 15.51169391 -127.92941684 19.71334071 -126.8125 25 C-126.64782227 25.7513623 -126.48314453 26.50272461 -126.31347656 27.27685547 C-124.06513946 38.44508044 -123.58644652 49.89871181 -122.9375 61.25 C-122.27105469 60.49976563 -121.60460937 59.74953125 -120.91796875 58.9765625 C-97.38855357 32.73254678 -67.16388273 13.15931031 -32.9375 4.25 C-31.82117188 3.94191406 -30.70484375 3.63382812 -29.5546875 3.31640625 C-19.75470052 0.69722814 -10.11848319 0.05769627 0 0 Z " fill="#9898FE" transform="translate(962.9375,417.75)"/>
<path d="M0 0 C112.87662184 0 112.87662184 0 139.25 25.75 C146.57910411 33.24533122 151.54174932 41.23525482 155.3125 51 C155.67674072 51.94214355 155.67674072 51.94214355 156.04833984 52.90332031 C159.36783753 62.08890838 160.37007622 71.40713541 160.3125 81.125 C160.30512817 82.61942627 160.30512817 82.61942627 160.29760742 84.14404297 C159.96676945 105.29392097 154.46450775 125.38508002 139.00195312 140.52832031 C127.51699497 151.27208997 114.9208162 157.35279755 100 162 C99.33468262 162.20850586 98.66936523 162.41701172 97.98388672 162.63183594 C65.53033199 172.55447474 34.66258307 169 0 169 C0 113.23 0 57.46 0 0 Z " fill="#00005B" transform="translate(394,396)"/>
</svg>
