<?xml version="1.0" encoding="UTF-8"?>
<svg version="1.1" xmlns="http://www.w3.org/2000/svg" width="1200" height="980">
<path d="M0 0 C-2.48671385 1.99025761 -4.97423492 3.97946143 -7.46484375 5.96484375 C-9.17575371 7.32978771 -10.88252397 8.69993084 -12.5859375 10.07421875 C-14.38051671 11.50581673 -16.21248121 12.89080252 -18.0625 14.25 C-29.20067139 23.68431515 -36.79634511 38.72253846 -39 53 C-39.73383703 62.26032442 -39.25533813 71.11699281 -34 79 C-34 79.66 -34 80.32 -34 81 C-29.46651144 83.33986506 -24.99654999 83.58179007 -20 83 C-18.32464124 82.35548837 -16.65668939 81.69108791 -15 81 C-15.00056554 82.42544711 -15.00056554 82.42544711 -15.0011425 83.87969112 C-15.00895098 107.01585101 -14.98232778 130.15177672 -14.9197216 153.2878561 C-14.8902404 164.47637744 -14.87189634 175.66470898 -14.87988281 186.85327148 C-14.88681647 196.60666096 -14.87273951 206.35975662 -14.83356392 216.11307389 C-14.81355578 221.27619048 -14.80398014 226.43884583 -14.81957626 231.60198784 C-14.83393488 236.46544375 -14.82012276 241.32801957 -14.78504753 246.19136238 C-14.7771031 247.97266702 -14.77929982 249.75405146 -14.79260826 251.5353241 C-15.00616063 263.70426974 -15.00616063 263.70426974 -9.66374397 274.38057041 C-4.06743592 279.8278189 2.49931211 282.92653505 10.33984375 283.03125 C25.73233956 282.05858044 42.16339047 272.83660953 53 262 C53.10550977 259.99999314 53.13968013 257.99621271 53.14717102 255.99343872 C53.15432632 254.68693863 53.16148163 253.38043854 53.16885376 252.03434753 C53.17169443 250.57254052 53.17440612 249.11073325 53.17700195 247.64892578 C53.18326398 246.11984603 53.18991055 244.59076781 53.19691467 243.06169128 C53.21435906 238.89379478 53.2248877 234.72590979 53.2331202 230.55798578 C53.23826749 227.95227896 53.24434362 225.34657573 53.25063133 222.74087143 C53.26970067 214.58391523 53.28392303 206.42696813 53.2922433 198.2699939 C53.30199609 188.86388301 53.32825682 179.45800869 53.36874419 170.05198109 C53.39897162 162.77881111 53.4137188 155.50570862 53.41702431 148.23247707 C53.41936903 143.89095321 53.42825229 139.54968153 53.45348549 135.20822525 C53.47688467 131.11566732 53.48095228 127.0235254 53.47072411 122.93091774 C53.47023135 121.43584491 53.47647434 119.94075082 53.49028015 118.44574165 C53.62044308 103.50317373 49.46935225 90.10385845 39 79 C37.76490527 78.08372582 36.51377899 77.18878764 35.25 76.3125 C34.1775 75.549375 33.105 74.78625 32 74 C32 73.34 32 72.68 32 72 C45.37924903 71.57650677 56.02714175 72.46935004 68 79 C68.66 79.33 69.32 79.66 70 80 C70.38929688 79.53851563 70.77859375 79.07703125 71.1796875 78.6015625 C97.86975876 47.48364532 138.34414856 21.28430097 180 17 C182.27685547 17.45532227 182.27685547 17.45532227 184 18 C180.777166 21.30864911 177.58870745 24.5216752 174 27.4375 C152.25270908 46.01331099 135.09166498 76.83383408 131 105 C130.91386931 106.95095612 130.8737584 108.90433669 130.87301636 110.85719299 C130.86878662 112.57839355 130.86878662 112.57839355 130.86447144 114.33436584 C130.86649567 115.5795549 130.8685199 116.82474396 130.87060547 118.10766602 C130.86924899 119.44391935 130.86746768 120.78017231 130.86529541 122.11642456 C130.86074377 125.73927392 130.86250307 129.36209473 130.8656745 132.98494458 C130.86821767 136.79879661 130.86585439 140.61264629 130.86428833 144.42649841 C130.86246903 150.84642979 130.86486322 157.26634967 130.86962891 163.6862793 C130.87503628 171.05457512 130.87333377 178.42284312 130.8678025 185.79113823 C130.86322266 192.15162215 130.86264539 198.51209781 130.86524117 204.87258285 C130.86678194 208.65533554 130.86706014 212.4380753 130.86370468 216.2208271 C130.85787744 224.3057363 130.88446052 232.38896189 130.97023773 240.47356033 C130.98959924 242.76764615 130.99736634 245.06186904 130.99167633 247.35602951 C130.98580783 250.32720837 131.02185744 253.29468004 131.07080078 256.26538086 C131.05924894 257.11015016 131.04769711 257.95491945 131.03579521 258.82528782 C131.03321084 261.43063025 131.03321084 261.43063025 132 265 C135.59662884 268.29512896 140.26386676 269.85827484 145.0625 270.25 C167.18831933 268.84518607 184.34815217 249.85522368 199.35546875 235.43359375 C202.12095553 232.78918159 204.95475683 230.32384576 208 228 C204.57351915 262.07444842 181.713568 292.84102313 159 317 C158.41734375 317.63679688 157.8346875 318.27359375 157.234375 318.9296875 C145.09302934 331.74555237 129.18726008 341.78589229 113.8125 350.25 C113.09344482 350.65750488 112.37438965 351.06500977 111.63354492 351.48486328 C106.67179512 354.12900414 106.67179512 354.12900414 103.84375 353.5859375 C101.25242149 351.35695578 98.94763571 348.93031147 96.6875 346.375 C96.20039551 345.83375488 95.71329102 345.29250977 95.21142578 344.73486328 C92.03196419 341.19287773 88.88765089 337.61951708 85.76953125 334.0234375 C82.22749258 329.97315928 78.60747906 325.99194962 75 322 C70.43157305 325.73780387 66.17831326 329.71240454 62 333.875 C61.5143457 334.35614258 61.02869141 334.83728516 60.52832031 335.33300781 C57.85467382 338.01734177 55.29887152 340.77056296 52.81640625 343.6328125 C48.44506731 348.65859374 44.0092116 353.60837131 39.41430664 358.43017578 C38.42841932 359.47815982 37.45628672 360.53925275 36.49829102 361.61279297 C28.57570607 370.46482812 28.57570607 370.46482812 22.5090332 371.7253418 C18.92137273 371.76172384 15.5528175 371.4843696 12 371 C11.05455322 370.91959473 10.10910645 370.83918945 9.13500977 370.75634766 C6.51021473 370.52149375 3.92044373 370.18950491 1.3125 369.8125 C0.37752686 369.6794043 -0.55744629 369.54630859 -1.52075195 369.40917969 C-23.47487304 366.08791998 -44.55701452 358.67428835 -64 348 C-64.63389648 347.65211426 -65.26779297 347.30422852 -65.92089844 346.94580078 C-80.48990943 338.82920491 -92.95687103 328.46210082 -105 317 C-105.71671875 316.33613281 -106.4334375 315.67226563 -107.171875 314.98828125 C-113.18688895 309.24995794 -118.0521754 302.65117405 -123 296 C-119.59722886 294.86046734 -117.33845128 295.19219795 -113.875 296 C-107.85206131 297.16598947 -101.78343119 297.887799 -96.11328125 295.05859375 C-92.09544836 292.11088584 -90.77162662 288.71967396 -90 284 C-89.70935214 279.43713736 -89.71655322 274.88390506 -89.7253418 270.31298828 C-89.72098945 268.92755866 -89.71580456 267.54213144 -89.70985413 266.15670776 C-89.69650847 262.40867631 -89.69588054 258.66074598 -89.69841743 254.91269541 C-89.69949024 251.77670006 -89.69459579 248.64072492 -89.689812 245.50473392 C-89.67873196 238.10226155 -89.67827081 230.69983993 -89.68432617 223.29736328 C-89.69036413 215.67710475 -89.67805608 208.05703095 -89.6567561 200.43680394 C-89.63910536 193.87945196 -89.63314424 187.32215859 -89.63639385 180.76478374 C-89.63820146 176.8549496 -89.63562299 172.94524722 -89.62167931 169.03543472 C-89.60904899 165.35649972 -89.61109378 161.67785135 -89.62409019 157.99892044 C-89.62756066 156.01711521 -89.6163162 154.03530101 -89.60452271 152.05352783 C-89.65412593 143.58821948 -90.51135397 136.87935998 -95.125 129.6875 C-99.85636984 125.26469776 -104.98087586 122.84191211 -111.5 122.5 C-119.54338744 122.947632 -125.57376565 126.69043846 -130.96875 132.4921875 C-143.73801894 148.25732338 -151.15145936 167.12797643 -158 186 C-158.66 186 -159.32 186 -160 186 C-161.88351563 140.37706586 -143.47886007 94.82753473 -113.625 60.875 C-112.09556767 59.23847995 -110.55262554 57.61453246 -109 56 C-108.50838379 55.47728516 -108.01676758 54.95457031 -107.51025391 54.41601562 C-82.20464161 27.58854874 -38.64806 -1.3027436 0 0 Z " fill="#000000" transform="translate(573,120)"/>
<path d="M0 0 C1.51796928 -0.01469078 1.51796928 -0.01469078 3.06660461 -0.02967834 C25.75610829 -0.20391524 47.82320192 -0.00128304 70.17578125 4.23828125 C71.27035645 4.44195313 72.36493164 4.645625 73.49267578 4.85546875 C98.5432578 9.68737146 123.33670336 17.86361279 146.17578125 29.23828125 C147.08875977 29.68929199 148.00173828 30.14030273 148.94238281 30.60498047 C167.50036738 39.84018917 185.05554484 50.16898891 201.17578125 63.23828125 C202.10519531 63.975625 203.03460937 64.71296875 203.9921875 65.47265625 C221.75353258 79.72215642 239.49077982 95.99161268 253.17578125 114.23828125 C254.09786062 115.42142923 255.02113021 116.60365017 255.9453125 117.78515625 C305.93437982 182.31915701 327.0185571 264.61569019 316.78515625 345.31884766 C312.56929371 376.5620975 303.82338003 406.79374611 290.17578125 435.23828125 C289.80372559 436.0286377 289.43166992 436.81899414 289.04833984 437.63330078 C270.46381218 476.97557802 241.68495088 514.53417275 207.17578125 541.23828125 C206.12321486 542.09024717 205.07252658 542.9445371 204.0234375 543.80078125 C141.88570117 594.17295289 61.23364541 615.55659612 -17.90258789 608.46459961 C-63.35767512 603.52688764 -108.08161456 588.61359581 -146.82421875 564.23828125 C-147.45489258 563.8417334 -148.08556641 563.44518555 -148.73535156 563.03662109 C-176.25949418 545.55313685 -203.11969577 523.32953728 -222.82421875 497.23828125 C-223.83164539 495.95700435 -224.84091935 494.67717881 -225.8515625 493.3984375 C-261.89668555 447.47443843 -284.62418393 391.46657814 -289.82421875 333.23828125 C-289.93507813 332.11035156 -290.0459375 330.98242188 -290.16015625 329.8203125 C-296.84700975 249.84915911 -271.24088708 170.55563485 -220.16796875 108.98828125 C-207.11416019 93.67181254 -192.93915034 78.35273192 -176.82421875 66.23828125 C-175.59335039 65.29088354 -174.36291471 64.34292352 -173.1328125 63.39453125 C-157.48478079 51.41063393 -141.33095068 41.31652705 -123.82421875 32.23828125 C-122.97085938 31.79452148 -122.1175 31.35076172 -121.23828125 30.89355469 C-84.33738986 11.94017628 -41.61189849 0.33415989 0 0 Z M-32.82421875 16.23828125 C-33.80084473 16.4098877 -34.7774707 16.58149414 -35.78369141 16.75830078 C-80.74945935 24.86997164 -123.278837 42.72101316 -159.82421875 70.23828125 C-160.40123535 70.67108398 -160.97825195 71.10388672 -161.57275391 71.54980469 C-180.75146098 86.02769274 -199.24211037 103.1207927 -213.82421875 122.23828125 C-214.5821875 123.17929688 -215.34015625 124.1203125 -216.12109375 125.08984375 C-254.24714921 173.05096447 -276.10341657 234.04942362 -277.82421875 295.23828125 C-277.84613281 295.94774902 -277.86804688 296.6572168 -277.890625 297.38818359 C-278.76397673 330.26259815 -273.79213628 362.93838798 -263.82421875 394.23828125 C-263.53740234 395.14529785 -263.25058594 396.05231445 -262.95507812 396.98681641 C-251.17743322 433.42972103 -231.26112598 467.68131268 -205.82421875 496.23828125 C-204.95410156 497.21925781 -204.08398438 498.20023437 -203.1875 499.2109375 C-192.8160428 510.70281489 -182.0955461 521.76094305 -169.82421875 531.23828125 C-168.53622081 532.25490748 -167.24847877 533.27185796 -165.9609375 534.2890625 C-114.76554712 574.42453052 -51.8405623 596.43768295 13.23828125 596.48828125 C14.02546539 596.48895599 14.81264954 596.48963074 15.62368774 596.49032593 C91.71557205 596.38759118 163.59758029 565.81054527 218.17578125 513.23828125 C219.00553467 512.44139893 219.00553467 512.44139893 219.85205078 511.62841797 C227.17585378 504.55665293 233.89747716 497.26968945 240.17578125 489.23828125 C241.05585816 488.14727958 241.93743892 487.05748975 242.8203125 485.96875 C285.24380708 433.33911001 309.13795924 363.98260297 306.17578125 296.23828125 C306.13469238 295.29001465 306.09360352 294.34174805 306.05126953 293.36474609 C302.98142074 230.17293852 280.86259216 170.52404528 241.17578125 121.23828125 C240.76376465 120.72185059 240.35174805 120.20541992 239.92724609 119.67333984 C233.16718896 111.27196265 225.71034696 103.56691905 218.11328125 95.92578125 C217.20352539 95.00676025 216.29376953 94.08773926 215.35644531 93.14086914 C209.27084284 87.08316722 202.92278885 81.54615298 196.17578125 76.23828125 C195.49636475 75.69953369 194.81694824 75.16078613 194.11694336 74.60571289 C155.28179239 44.13600346 109.66804808 24.75903099 61.17578125 16.23828125 C60.25974121 16.07312012 59.34370117 15.90795898 58.39990234 15.73779297 C29.07890715 10.69180572 -3.56476948 10.96283085 -32.82421875 16.23828125 Z " fill="#000000" transform="translate(585.82421875,-0.23828125)"/>
<path d="M0 0 C22.77 0 45.54 0 69 0 C80.6733871 15.17540323 80.6733871 15.17540323 85.125 21 C85.65867187 21.69802734 86.19234375 22.39605469 86.7421875 23.11523438 C91.85466228 29.80483727 96.95596482 36.50294264 102.05712891 43.20117188 C106.19880873 48.63867817 110.34603404 54.07187491 114.5 59.5 C120.02056124 66.71390048 125.52657903 73.93881136 131.0300293 81.16577148 C135.98737993 87.67436101 140.95363626 94.17607577 145.92773438 100.671875 C146.42208984 101.31769531 146.91644531 101.96351563 147.42578125 102.62890625 C147.85286377 103.18650635 148.27994629 103.74410645 148.7199707 104.31860352 C150.15619501 106.20517166 151.5773698 108.10315974 153 110 C153.495 55.55 153.495 55.55 154 0 C168.85 0 183.7 0 199 0 C199 49.83 199 99.66 199 151 C176.56 151 154.12 151 131 151 C117.95774648 134.6971831 117.95774648 134.6971831 111.6953125 126.51171875 C108.48746496 122.32254711 105.2425076 118.16236175 102 114 C95.51755081 105.67462096 89.07925759 97.31663239 82.65625 88.9453125 C77.79260194 82.61309539 72.90506363 76.30020265 68 70 C63.80502551 64.60994228 59.61028731 59.21976367 55.4375 53.8125 C54.32181641 52.36810547 54.32181641 52.36810547 53.18359375 50.89453125 C50.72901902 47.64079265 48.36898256 44.31657558 46 41 C45.67 77.3 45.34 113.6 45 151 C30.15 151 15.3 151 0 151 C0 101.17 0 51.34 0 0 Z " fill="#000000" transform="translate(214,695)"/>
<path d="M0 0 C32.8246875 -0.0928125 32.8246875 -0.0928125 66.3125 -0.1875 C73.18747314 -0.21481201 80.06244629 -0.24212402 87.14575195 -0.27026367 C95.62927246 -0.28381348 95.62927246 -0.28381348 99.61784363 -0.28633118 C102.36634835 -0.29089724 105.11441903 -0.30020112 107.86283875 -0.31672668 C156.68275021 -0.59667583 156.68275021 -0.59667583 170.0859375 11.953125 C181.18176159 25.70112167 179.97871837 46.05610495 178.72265625 62.66796875 C177.39049692 72.47519888 173.85453494 80.31901556 166.0703125 86.59375 C163.15594837 88.57331809 160.31738379 89.82509324 157 91 C157.80824219 91.31453125 158.61648438 91.6290625 159.44921875 91.953125 C160.51785156 92.38109375 161.58648438 92.8090625 162.6875 93.25 C163.74324219 93.66765625 164.79898438 94.0853125 165.88671875 94.515625 C170.9727267 96.94057233 174.22392064 99.35616405 176.25 104.6875 C176.56453125 105.47511719 176.8790625 106.26273438 177.203125 107.07421875 C179.72294588 116.32591404 179.11695111 126.06053998 179.0625 135.5625 C179.041875 140.656875 179.02125 145.75125 179 151 C164.15 151 149.3 151 134 151 C133.6875 139.5625 133.6875 139.5625 133.61206055 136.01391602 C133.35793034 128.7072088 132.83258749 121.47220402 128.0625 115.625 C118.40423396 110.50020577 107.62160201 110.53385321 96.953125 110.48828125 C95.4456846 110.47139343 93.93825792 110.45323784 92.43084717 110.43388367 C88.50521133 110.38682194 84.57963115 110.35673153 80.65380859 110.33044434 C75.92108477 110.29511474 71.18857463 110.23822969 66.45602417 110.18505096 C59.30404518 110.10705231 52.15233586 110.05605885 45 110 C45 123.53 45 137.06 45 151 C30.15 151 15.3 151 0 151 C0 101.17 0 51.34 0 0 Z M45 34 C45 47.86 45 61.72 45 76 C56.79295933 76.05829244 56.79295933 76.05829244 68.5859375 76.09765625 C73.40466791 76.10955381 78.22332141 76.12353928 83.04199219 76.15087891 C86.93236883 76.17281039 90.82266286 76.18461084 94.71309662 76.18975449 C96.18804981 76.19341418 97.66299912 76.20055912 99.13791656 76.21146011 C116.19588772 76.91976539 116.19588772 76.91976539 131 70 C133.64762373 65.27275487 133.3316789 60.32902681 133.3125 55.0625 C133.32861328 54.18142578 133.34472656 53.30035156 133.36132812 52.39257812 C133.36520534 47.21649151 133.06730537 43.37709154 130 39 C120.53255911 32.32010133 107.18547024 33.72097005 96.07421875 33.8046875 C94.59064426 33.80842907 93.10706725 33.81127061 91.62348938 33.81326294 C87.76515583 33.82080956 83.9069788 33.84037803 80.04870605 33.8626709 C75.39454634 33.88697272 70.74033357 33.89595314 66.08612823 33.90757751 C59.05731079 33.92681002 52.02883508 33.96519421 45 34 Z " fill="#000000" transform="translate(443,695)"/>
<path d="M0 0 C53.13 0 106.26 0 161 0 C161 11.22 161 22.44 161 34 C122.39 34 83.78 34 44 34 C44 42.25 44 50.5 44 59 C80.63 59 117.26 59 155 59 C155 69.56 155 80.12 155 91 C118.37 91 81.74 91 44 91 C44 99.25 44 107.5 44 116 C83.6 116 123.2 116 164 116 C164 127.55 164 139.1 164 151 C109.88 151 55.76 151 0 151 C0 101.17 0 51.34 0 0 Z " fill="#000000" transform="translate(650,695)"/>
<path d="M0 0 C14.85 0 29.7 0 45 0 C45.04898438 6.82558594 45.09796875 13.65117188 45.1484375 20.68359375 C45.18383888 25.01759261 45.21980753 29.35157198 45.2578125 33.68554688 C45.31803086 40.55880895 45.37619211 47.43204387 45.421875 54.30541992 C45.45885297 59.84925043 45.50524664 65.39293072 45.55806351 70.93663216 C45.57654109 73.04760149 45.59167331 75.15860295 45.60334396 77.2696209 C45.62032032 80.23515962 45.64938229 83.20035927 45.68115234 86.16577148 C45.68331253 87.0310849 45.68547272 87.89639832 45.68769836 88.78793335 C45.79611103 96.7525232 46.45315387 104.88424657 52 111 C70.5585697 121.84320926 103.65534187 118.95253787 124 115 C129.66337034 113.35622506 133.64101676 111.3775622 136.5625 106.125 C139.38472954 99.67033147 139.1592022 92.40129744 139.20532227 85.48461914 C139.21522186 84.55700775 139.22512146 83.62939636 139.23532104 82.67367554 C139.26674379 79.62752782 139.29161698 76.58136455 139.31640625 73.53515625 C139.3369924 71.41523346 139.3579893 69.29531462 139.37937927 67.17539978 C139.4344284 61.6106182 139.483913 56.04580063 139.53222656 50.48095703 C139.59142666 43.79612057 139.65755976 37.11134951 139.72252655 30.42656708 C139.82032 20.28441818 139.90932383 10.14222627 140 0 C154.85 0 169.7 0 185 0 C185.06796836 14.36119091 185.12292708 28.72227373 185.15543652 43.08358955 C185.17104498 49.75322432 185.19219477 56.42271157 185.22631836 63.09228516 C185.25908408 69.53731291 185.27688922 75.98222916 185.28463173 82.42733383 C185.29014444 84.877519 185.30090885 87.32769857 185.31719017 89.77783585 C185.54250246 125.11258109 185.54250246 125.11258109 174.25390625 137.9921875 C155.41295031 156.24558764 119.70354054 153.34172081 95.71362305 153.26074219 C91.93847641 153.25000278 88.1638044 153.26071591 84.38867188 153.2734375 C28.11874859 153.30746176 28.11874859 153.30746176 11.625 138.9296875 C1.294414 128.02940007 -0.33052661 114.97180318 -0.22705078 100.4699707 C-0.22734283 99.37596451 -0.22763489 98.28195831 -0.22793579 97.15480042 C-0.22655471 93.57837688 -0.21105146 90.0021679 -0.1953125 86.42578125 C-0.19157802 83.93043634 -0.1887331 81.43508995 -0.18673706 78.93974304 C-0.17913486 72.40170172 -0.15951589 65.86375056 -0.1373291 59.32574463 C-0.11570143 52.64231111 -0.10771961 45.95884939 -0.09765625 39.27539062 C-0.0762666 26.18354795 -0.04111248 13.09179561 0 0 Z " fill="#000000" transform="translate(0,695)"/>
<path d="M0 0 C0.97040726 0.00888245 1.94081451 0.01776489 2.94062805 0.0269165 C4.04154282 0.02721863 5.14245758 0.02752075 6.2767334 0.02783203 C7.4643074 0.04847717 8.65188141 0.06912231 9.8754425 0.09039307 C11.70024895 0.09888275 11.70024895 0.09888275 13.56192017 0.10754395 C17.4545852 0.12996772 21.34633605 0.18017793 25.23872375 0.23101807 C27.87477819 0.25107518 30.51084702 0.26932731 33.14692688 0.28570557 C39.61533873 0.32985234 46.08321595 0.39682519 52.55122375 0.48101807 C57.75022833 9.48404847 62.7947833 18.55060056 67.67622375 27.73101807 C68.65623518 29.56810009 69.6370225 31.40476659 70.61782837 33.24142456 C71.28381933 34.48867745 71.94958104 35.73605278 72.6151123 36.98355103 C75.93190175 43.19970406 79.27089083 49.40383539 82.61372375 55.60601807 C83.76867167 57.74924723 84.92361959 59.8924764 86.0785675 62.03570557 C86.64946106 63.09499268 87.22035461 64.15427979 87.80854797 65.2456665 C89.57986177 68.53418575 91.3490352 71.82384831 93.11763 75.11383057 C99.01796819 86.08706976 104.94107408 97.04666532 110.92256165 107.97589111 C113.81519514 113.27077499 116.68189414 118.57888034 119.52778625 123.89898682 C120.03684258 124.85058685 120.03684258 124.85058685 120.55618286 125.82141113 C122.22799318 128.94808783 123.8975772 132.07593491 125.56465149 135.20513916 C126.1699469 136.33903076 126.77524231 137.47292236 127.39888 138.64117432 C127.93521057 139.6480127 128.47154114 140.65485107 129.02412415 141.69219971 C130.04877187 143.56343087 131.1249181 145.40729797 132.24824524 147.2210083 C133.55122375 149.48101807 133.55122375 149.48101807 133.55122375 151.48101807 C117.38122375 151.48101807 101.21122375 151.48101807 84.55122375 151.48101807 C82.40622375 147.39726807 80.26122375 143.31351807 78.05122375 139.10601807 C77.37253235 137.81905029 76.69384094 136.53208252 75.99458313 135.20611572 C75.46671204 134.19597412 74.93884094 133.18583252 74.39497375 132.14508057 C73.85034485 131.10819092 73.30571594 130.07130127 72.74458313 129.00299072 C71.55122375 126.48101807 71.55122375 126.48101807 71.55122375 124.48101807 C25.51622375 124.97601807 25.51622375 124.97601807 -21.44877625 125.48101807 C-25.73877625 134.06101807 -30.02877625 142.64101807 -34.44877625 151.48101807 C-50.61877625 151.48101807 -66.78877625 151.48101807 -83.44877625 151.48101807 C-74.0003356 132.58413678 -74.0003356 132.58413678 -69.69877625 124.35601807 C-69.18983826 123.38140625 -68.68090027 122.40679443 -68.15653992 121.40264893 C-64.28589268 114.01810438 -60.31430051 106.69275455 -56.30131531 99.38482666 C-51.77449949 91.12346048 -47.35763378 82.80567794 -42.94877625 74.48101807 C-37.71840132 64.60671419 -32.44904701 54.7582191 -27.06620789 44.96588135 C-24.00969234 39.38869547 -21.01017812 33.78345838 -18.03862 28.16070557 C-17.65469086 27.43482239 -17.27076172 26.70893921 -16.87519836 25.96105957 C-14.9607004 22.33999468 -13.05040781 18.71679651 -11.14604187 15.09039307 C-10.44368409 13.75960258 -9.74121526 12.42887069 -9.03862 11.09820557 C-8.72037766 10.4887912 -8.40213531 9.87937683 -8.07424927 9.25149536 C-3.545295 0.69640946 -3.545295 0.69640946 0 0 Z M24.55122375 33.48101807 C18.55161187 44.78741197 12.63591084 56.13705986 6.7618866 67.50912476 C6.00013157 68.98325223 5.23754589 70.45695078 4.47410583 71.9302063 C3.38407823 74.0344286 2.29732875 76.14031343 1.21138 78.24664307 C0.88669739 78.87214554 0.56201477 79.49764801 0.22749329 80.1421051 C-1.86243509 84.20732314 -3.63927051 88.25883803 -5.44877625 92.48101807 C14.35122375 92.48101807 34.15122375 92.48101807 54.55122375 92.48101807 C52.89508276 87.51259508 50.96601613 83.28049503 48.48872375 78.73101807 C43.27943951 69.01218914 38.34554359 59.16108513 33.42622375 49.29351807 C33.03715851 48.51343384 32.64809326 47.73334961 32.24723816 46.92962646 C30.01254185 42.44809356 27.78067669 37.96516157 25.55122375 33.48101807 C25.22122375 33.48101807 24.89122375 33.48101807 24.55122375 33.48101807 Z " fill="#000000" transform="translate(905.4487762451172,694.5189819335938)"/>
<path d="M0 0 C15.18 0 30.36 0 46 0 C46 38.28 46 76.56 46 116 C79 116 112 116 146 116 C146 127.55 146 139.1 146 151 C97.82 151 49.64 151 0 151 C0 101.17 0 51.34 0 0 Z " fill="#000000" transform="translate(1054,695)"/>
<path d="M0 0 C40 0 40 0 48.1875 7.4375 C49.4455884 9.79910606 50.7046305 12.16427338 51.81005859 14.60107422 C53.81875042 18.65060352 56.67360364 21.99672804 59.5 25.5 C60.58088665 26.90573885 61.65771487 28.31460755 62.73046875 29.7265625 C64.95869382 32.64075634 67.19095956 35.55179976 69.42578125 38.4609375 C69.99296875 39.20021484 70.56015625 39.93949219 71.14453125 40.70117188 C72.20721515 42.08614515 73.27090925 43.47034432 74.3359375 44.85351562 C78.66499823 50.49937942 82.81054661 56.23950159 87 62 C87.33 41.54 87.66 21.08 88 0 C96.58 0 105.16 0 114 0 C114 28.71 114 57.42 114 87 C75 87 75 87 66.8125 80 C65.54315254 77.78352406 64.27189145 75.56319788 63.16308594 73.26220703 C61.21751425 69.47806194 58.55600893 66.27348202 55.9375 62.9375 C54.94490381 61.60640806 53.95530005 60.27307925 52.96875 58.9375 C49.63518986 54.47809369 46.15745384 50.13895915 42.62280273 45.83764648 C37.12614634 39.08027993 32.17609012 32.05830471 27 25 C26.67 45.46 26.34 65.92 26 87 C17.42 87 8.84 87 0 87 C0 58.29 0 29.58 0 0 Z " fill="#000000" transform="translate(691,892)"/>
<path d="M0 0 C12.87 0 25.74 0 39 0 C44.55366876 6.78781737 49.98313088 13.52618149 55.1875 20.5625 C61.18838348 28.62026374 67.29679315 36.5841644 73.48828125 44.49609375 C78.02046889 50.30878824 82.5059667 56.15775671 87 62 C87.33 41.54 87.66 21.08 88 0 C96.58 0 105.16 0 114 0 C114 28.71 114 57.42 114 87 C100.8 87 87.6 87 74 87 C70.7 82.71 67.4 78.42 64 74 C61.75279827 71.10190173 59.50391785 68.20534801 57.25 65.3125 C56.66637695 64.56266846 56.08275391 63.81283691 55.48144531 63.0402832 C53.65464521 60.6932507 51.82738712 58.34657547 50 56 C47.58290247 52.89616847 45.16630999 49.79194465 42.75 46.6875 C42.22051758 46.00792236 41.69103516 45.32834473 41.14550781 44.62817383 C36.06936291 38.10624239 31.03930753 31.55109978 26 25 C25.67 45.46 25.34 65.92 25 87 C16.75 87 8.5 87 0 87 C0 58.29 0 29.58 0 0 Z " fill="#000000" transform="translate(391,892)"/>
<path d="M0 0 C6.50645927 7.01127076 5.54292525 15.75015643 5.359375 24.65234375 C-2.890625 24.65234375 -11.140625 24.65234375 -19.640625 24.65234375 C-20.630625 22.01234375 -21.620625 19.37234375 -22.640625 16.65234375 C-32.03621166 10.29650571 -54.89275274 12.63592878 -65.640625 14.65234375 C-69.03732857 16.02294344 -71.0737211 17.08543985 -73.640625 19.65234375 C-75.55449673 25.1055046 -74.86669873 31.33289257 -74.890625 37.02734375 C-74.91125 38.24679687 -74.931875 39.46625 -74.953125 40.72265625 C-74.95828125 41.9034375 -74.9634375 43.08421875 -74.96875 44.30078125 C-74.9780957 45.37505371 -74.98744141 46.44932617 -74.99707031 47.55615234 C-74.58159909 51.16506061 -73.51365573 53.5555921 -71.640625 56.65234375 C-64.58340804 60.65779121 -55.65278822 59.8385898 -47.81005859 59.83764648 C-45.77810628 59.83983034 -43.74670014 59.85801668 -41.71484375 59.87695312 C-30.79440092 60.11626782 -30.79440092 60.11626782 -20.703125 56.46484375 C-19.09414912 53.98228632 -19.09414912 53.98228632 -18.640625 47.65234375 C-29.530625 47.65234375 -40.420625 47.65234375 -51.640625 47.65234375 C-51.640625 42.04234375 -51.640625 36.43234375 -51.640625 30.65234375 C-32.500625 30.65234375 -13.360625 30.65234375 6.359375 30.65234375 C6.359375 65.39137377 6.359375 65.39137377 1.66796875 72.0546875 C-8.46609018 80.36927029 -20.37904619 80.80371893 -32.98828125 80.85546875 C-34.07717148 80.86116882 -35.16606171 80.8668689 -36.28794861 80.8727417 C-38.58835895 80.88216181 -40.8887826 80.88871376 -43.18920898 80.89257812 C-46.66740185 80.90224447 -50.14499339 80.93328112 -53.62304688 80.96484375 C-83.86019044 81.11053515 -83.86019044 81.11053515 -93.8046875 73.4765625 C-103.10900515 64.23163411 -102.67744257 49.21309796 -102.828125 36.90234375 C-102.78356588 34.81854949 -102.72082939 32.73507064 -102.640625 30.65234375 C-102.61097656 29.50121094 -102.58132813 28.35007812 -102.55078125 27.1640625 C-102.12078333 17.56776744 -101.25416095 7.54182619 -93.953125 0.58984375 C-76.49808604 -12.50938403 -17.17351284 -14.10681412 0 0 Z " fill="#000000" transform="translate(624.640625,899.34765625)"/>
<path d="M0 0 C30.69 0 61.38 0 93 0 C93 6.6 93 13.2 93 20 C70.89 20 48.78 20 26 20 C26 24.62 26 29.24 26 34 C47.12 34 68.24 34 90 34 C90 40.27 90 46.54 90 53 C68.88 53 47.76 53 26 53 C26 57.62 26 62.24 26 67 C48.77 67 71.54 67 95 67 C95 73.6 95 80.2 95 87 C63.65 87 32.3 87 0 87 C0 58.29 0 29.58 0 0 Z " fill="#000000" transform="translate(283,892)"/>
<path d="M0 0 C30.36 0 60.72 0 92 0 C92 6.27 92 12.54 92 19 C69.89 19 47.78 19 25 19 C25 23.62 25 28.24 25 33 C45.79 33 66.58 33 88 33 C88 38.94 88 44.88 88 51 C67.21 51 46.42 51 25 51 C25 55.62 25 60.24 25 65 C47.44 65 69.88 65 93 65 C93 71.6 93 78.2 93 85 C62.31 85 31.62 85 0 85 C0 56.95 0 28.9 0 0 Z " fill="#000000" transform="translate(824,894)"/>
<path d="M0 0 C8.58 0 17.16 0 26 0 C26 28.71 26 57.42 26 87 C17.42 87 8.84 87 0 87 C0 58.29 0 29.58 0 0 Z " fill="#000000" transform="translate(648,893)"/>
</svg>
